{"title":"P.K 2014 Official Teaser Trailer 720p HD - M.S.K","uid":11271127,"size":36910158,"categoryP":"video","categoryS":"other","magnet":"?xt=urn:btih:be635c199de2ac9dad707903ae0ad57a971adc38&amp;dn=P.K+2014+Official+Teaser+Trailer+720p+HD+-+M.S.K&amp;tr=udp%3A%2F%2Ftracker.openbittorrent.com%3A80&amp;tr=udp%3A%2F%2Fopen.demonii.com%3A1337&amp;tr=udp%3A%2F%2Ftracker.coppersurfer.tk%3A6969&amp;tr=udp%3A%2F%2Fexodus.desync.com%3A6969","seeders":2,"leechers":0,"uploader":"m.s.k","files":1,"time":1414083587,"description":" &lt;a href=&quot;http://upload.wikimedia.org/wikipedia/en/2/2d/PK_Theatrical_Poster.jpg&quot; rel=&quot;nofollow&quot; target=&quot;_NEW&quot;&gt;http://upload.wikimedia.org/wikipedia/en/2/2d/PK_Theatrical_Poster.jpg&lt;/a&gt;\n\n:Screenshots: &lt;a href=&quot;\nhttp://i.imgur.com/nElGMVf.png&quot; rel=&quot;nofollow&quot; target=&quot;_NEW&quot;&gt;\nhttp://i.imgur.com/nElGMVf.png&lt;/a&gt; &lt;a href=&quot;\nhttp://i.imgur.com/9XxVZr0.png&quot; rel=&quot;nofollow&quot; target=&quot;_NEW&quot;&gt;\nhttp://i.imgur.com/9XxVZr0.png&lt;/a&gt; &lt;a href=&quot;\nhttp://i.imgur.com/tFJZ3GB.jpg&quot; rel=&quot;nofollow&quot; target=&quot;_NEW&quot;&gt;\nhttp://i.imgur.com/tFJZ3GB.jpg&lt;/a&gt; &lt;a href=&quot;\nhttp://i.imgur.com/dOmLnq7.jpg&quot; rel=&quot;nofollow&quot; target=&quot;_NEW&quot;&gt;\nhttp://i.imgur.com/dOmLnq7.jpg&lt;/a&gt; &lt;a href=&quot;\nhttp://i.imgur.com/6UHaxxA.jpg&quot; rel=&quot;nofollow&quot; target=&quot;_NEW&quot;&gt;\nhttp://i.imgur.com/6UHaxxA.jpg&lt;/a&gt; &lt;a href=&quot;\nhttp://i.imgur.com/p49aB85.jpg&quot; rel=&quot;nofollow&quot; target=&quot;_NEW&quot;&gt;\nhttp://i.imgur.com/p49aB85.jpg&lt;/a&gt;\n\n:Media Info:\nGeneral \nComplete name : P.K 2014 Official Teaser Trailer 720p HD - M.S.K.mp4 \nFormat : MPEG-4 \nFormat profile : Base Media / Version 2 \nCodec ID : mp42 \nFile size : 35.2 MiB \nDuration : 2mn 13s \nOverall bit rate mode : Variable \nOverall bit rate : 2 213 Kbps \n\nVideo \nID : 1 \nFormat : AVC \nFormat/Info : Advanced Video Codec \nFormat profile : &lt;a class=&quot;__cf_email__&quot; href=&quot;/cdn-cgi/l/email-protection&quot; data-cfemail=&quot;2a62434d426a6619041b&quot;&gt;[email&amp;#160;protected]&lt;/a&gt;&lt;script cf-hash='f9e31' type=&quot;text/javascript&quot;&gt;\n/* &lt;![CDATA[ */!function(){try{var t=&quot;currentScript&quot;in document?document.currentScript:function(){for(var t=document.getElementsByTagName(&quot;script&quot;),e=t.length;e--;)if(t[e].getAttribute(&quot;cf-hash&quot;))return t[e]}();if(t&amp;&amp;t.previousSibling){var e,r,n,i,c=t.previousSibling,a=c.getAttribute(&quot;data-cfemail&quot;);if(a){for(e=&quot;&quot;,r=parseInt(a.substr(0,2),16),n=2;a.length-n;n+=2)i=parseInt(a.substr(n,2),16)^r,e+=String.fromCharCode(i);e=document.createTextNode(e),c.parentNode.replaceChild(e,c)}}}catch(u){}}();/* ]]&gt; */&lt;/script&gt; \nFormat settings, CABAC : Yes \nFormat settings, ReFrames : 1 frame \nCodec ID : avc1 \nCodec ID/Info : Advanced Video Coding \nDuration : 2mn 13s \nBit rate : 2 016 Kbps \nMaximum bit rate : 5 565 Kbps \nWidth : 1 280 pixels \nHeight : 720 pixels \nDisplay aspect ratio : 16:9 \nFrame rate mode : Constant \nFrame rate : 24.000 fps \nColor space : YUV \nChroma subsampling : 4:2:0 \nBit depth : 8 bits \nScan type : Progressive \nBits/(Pixel*Frame) : 0.091 \nStream size : 32.1 MiB (91%) \n\nAudio \nID : 2 \nFormat : AAC \nFormat/Info : Advanced Audio Codec \nFormat profile : LC \nCodec ID : 40 \nDuration : 2mn 13s \nBit rate mode : Variable \nBit rate : 192 Kbps \nMaximum bit rate : 205 Kbps \nChannel(s) : 2 channels \nChannel positions : Front: L R \nSampling rate : 44.1 KHz \nCompression mode : Lossy \nStream size : 3.09 MiB (9%)","torrent":{"xt":"urn:btih:be635c199de2ac9dad707903ae0ad57a971adc38","amp;dn":"P.K+2014+Official+Teaser+Trailer+720p+HD+-+M.S.K","amp;tr":["udp%3A%2F%2Ftracker.openbittorrent.com%3A80","udp%3A%2F%2Fopen.demonii.com%3A1337","udp%3A%2F%2Ftracker.coppersurfer.tk%3A6969","udp%3A%2F%2Fexodus.desync.com%3A6969"],"infoHash":"be635c199de2ac9dad707903ae0ad57a971adc38","infoHashBuffer":{"type":"Buffer","data":[190,99,92,25,157,226,172,157,173,112,121,3,174,10,213,122,151,26,220,56]},"announce":[],"urlList":[]}}